<svg width="200" height="37" viewBox="0 0 200 37" fill="none" xmlns="http://www.w3.org/2000/svg">
<path d="M18.0727 26.6894C18.3718 26.5089 18.7463 26.5089 19.0455 26.6894L25.8598 30.8023C26.5726 31.2325 27.452 30.5934 27.2629 29.7825L25.4545 22.0309C25.3751 21.6906 25.4908 21.3343 25.7549 21.1055L31.7767 15.8888C32.4061 15.3436 32.0697 14.3098 31.24 14.2394L23.3127 13.5669C22.9648 13.5373 22.6618 13.3177 22.5256 12.9962L19.4257 5.68242C19.1014 4.91712 18.0168 4.91712 17.6924 5.68242L14.5926 12.9962C14.4563 13.3177 14.1534 13.5373 13.8055 13.5669L5.87816 14.2394C5.04847 14.3098 4.71204 15.3436 5.34139 15.8888L11.3633 21.1055C11.6274 21.3343 11.743 21.6906 11.6636 22.0309L9.85525 29.7825C9.66609 30.5934 10.5455 31.2325 11.2583 30.8023L18.0727 26.6894Z" fill="url(#paint0_linear_160_867)"/>
<path d="M58.8125 26.6894C59.1116 26.5089 59.4861 26.5089 59.7853 26.6894L66.5996 30.8023C67.3125 31.2325 68.1918 30.5934 68.0027 29.7825L66.1943 22.0309C66.1149 21.6906 66.2306 21.3343 66.4947 21.1055L72.5165 15.8888C73.1459 15.3436 72.8095 14.3098 71.9798 14.2394L64.0525 13.5669C63.7046 13.5373 63.4016 13.3177 63.2654 12.9962L60.1655 5.68242C59.8412 4.91712 58.7566 4.91712 58.4322 5.68242L55.3324 12.9962C55.1961 13.3177 54.8932 13.5373 54.5453 13.5669L46.618 14.2394C45.7883 14.3098 45.4518 15.3436 46.0812 15.8888L52.1031 21.1055C52.3672 21.3343 52.4828 21.6906 52.4034 22.0309L50.5951 29.7825C50.4059 30.5934 51.2853 31.2325 51.9981 30.8023L58.8125 26.6894Z" fill="url(#paint1_linear_160_867)"/>
<path d="M99.5523 26.6894C99.8514 26.5089 100.226 26.5089 100.525 26.6894L107.339 30.8023C108.052 31.2325 108.932 30.5934 108.742 29.7825L106.934 22.0309C106.855 21.6906 106.97 21.3343 107.234 21.1055L113.256 15.8888C113.886 15.3436 113.549 14.3098 112.72 14.2394L104.792 13.5669C104.444 13.5373 104.141 13.3177 104.005 12.9962L100.905 5.68242C100.581 4.91712 99.4964 4.91712 99.172 5.68242L96.0722 12.9962C95.9359 13.3177 95.633 13.5373 95.2851 13.5669L87.3578 14.2394C86.5281 14.3098 86.1917 15.3436 86.821 15.8888L92.8429 21.1055C93.107 21.3343 93.2226 21.6906 93.1432 22.0309L91.3349 29.7825C91.1457 30.5934 92.0251 31.2325 92.738 30.8023L99.5523 26.6894Z" fill="url(#paint2_linear_160_867)"/>
<path d="M140.292 26.6894C140.591 26.5089 140.966 26.5089 141.265 26.6894L148.079 30.8023C148.792 31.2325 149.671 30.5934 149.482 29.7825L147.674 22.0309C147.595 21.6906 147.71 21.3343 147.974 21.1055L153.996 15.8888C154.626 15.3436 154.289 14.3098 153.459 14.2394L145.532 13.5669C145.184 13.5373 144.881 13.3177 144.745 12.9962L141.645 5.68242C141.321 4.91712 140.236 4.91712 139.912 5.68242L136.812 12.9962C136.676 13.3177 136.373 13.5373 136.025 13.5669L128.098 14.2394C127.268 14.3098 126.931 15.3436 127.561 15.8888L133.583 21.1055C133.847 21.3343 133.962 21.6906 133.883 22.0309L132.075 29.7825C131.886 30.5934 132.765 31.2325 133.478 30.8023L140.292 26.6894Z" fill="url(#paint3_linear_160_867)"/>
<path d="M181.032 26.6894C181.331 26.5089 181.706 26.5089 182.005 26.6894L188.819 30.8023C189.532 31.2325 190.411 30.5934 190.222 29.7825L188.414 22.0309C188.334 21.6906 188.45 21.3343 188.714 21.1055L194.736 15.8888C195.365 15.3436 195.029 14.3098 194.199 14.2394L186.272 13.5669C185.924 13.5373 185.621 13.3177 185.485 12.9962L182.385 5.68242C182.061 4.91712 180.976 4.91712 180.652 5.68242L177.552 12.9962C177.416 13.3177 177.113 13.5373 176.765 13.5669L168.837 14.2394C168.008 14.3098 167.671 15.3436 168.301 15.8888L174.322 21.1055C174.587 21.3343 174.702 21.6906 174.623 22.0309L172.814 29.7825C172.625 30.5934 173.505 31.2325 174.218 30.8023L181.032 26.6894Z" fill="url(#paint4_linear_160_867)"/>
<defs>
<linearGradient id="paint0_linear_160_867" x1="0.685429" y1="1.38959" x2="52.5744" y2="53.5486" gradientUnits="userSpaceOnUse">
<stop stop-color="#2E85FE"/>
<stop offset="0.940047" stop-color="#AF2EE6"/>
</linearGradient>
<linearGradient id="paint1_linear_160_867" x1="41.4252" y1="1.38959" x2="76.9935" y2="54.9428" gradientUnits="userSpaceOnUse">
<stop stop-color="#2E85FE"/>
<stop offset="0.805825" stop-color="#AF2EE6"/>
</linearGradient>
<linearGradient id="paint2_linear_160_867" x1="82.165" y1="1.38959" x2="113.051" y2="32.5644" gradientUnits="userSpaceOnUse">
<stop stop-color="#2E85FE"/>
<stop offset="0.940047" stop-color="#AF2EE6"/>
</linearGradient>
<linearGradient id="paint3_linear_160_867" x1="95.6094" y1="-21.213" x2="144.99" y2="38.3068" gradientUnits="userSpaceOnUse">
<stop stop-color="#2E85FE"/>
<stop offset="0.940047" stop-color="#AF2EE6"/>
</linearGradient>
<linearGradient id="paint4_linear_160_867" x1="147.799" y1="-20.2189" x2="187.018" y2="35.1519" gradientUnits="userSpaceOnUse">
<stop offset="0.940047" stop-color="#AF2EE6"/>
</linearGradient>
</defs>
</svg>
